<svg width="162" height="162" viewBox="0 0 162 162" fill="none" xmlns="http://www.w3.org/2000/svg">
<mask id="mask0_100_1038" style="mask-type:luminance" maskUnits="userSpaceOnUse" x="0" y="0" width="162" height="162">
<path d="M6.44074 45.1709H0.917847V50.6938H6.44074V45.1709Z" fill="white"/>
<path d="M6.44074 50.6934H0.917847V56.2162H6.44074V50.6934Z" fill="white"/>
<path d="M6.44074 56.2158H0.917847V61.7387H6.44074V56.2158Z" fill="white"/>
<path d="M6.44074 83.8301H0.917847V89.353H6.44074V83.8301Z" fill="white"/>
<path d="M6.44074 100.399H0.917847V105.922H6.44074V100.399Z" fill="white"/>
<path d="M11.9636 45.1709H6.44067V50.6938H11.9636V45.1709Z" fill="white"/>
<path d="M11.9636 50.6934H6.44067V56.2162H11.9636V50.6934Z" fill="white"/>
<path d="M11.9636 67.2607H6.44067V72.7836H11.9636V67.2607Z" fill="white"/>
<path d="M11.9636 72.7832H6.44067V78.3061H11.9636V72.7832Z" fill="white"/>
<path d="M11.9636 78.3057H6.44067V83.8286H11.9636V78.3057Z" fill="white"/>
<path d="M11.9636 89.3525H6.44067V94.8754H11.9636V89.3525Z" fill="white"/>
<path d="M11.9636 100.399H6.44067V105.922H11.9636V100.399Z" fill="white"/>
<path d="M17.4865 45.1709H11.9636V50.6938H17.4865V45.1709Z" fill="white"/>
<path d="M17.4865 50.6934H11.9636V56.2162H17.4865V50.6934Z" fill="white"/>
<path d="M17.4865 61.7363H11.9636V67.2592H17.4865V61.7363Z" fill="white"/>
<path d="M17.4865 67.2607H11.9636V72.7836H17.4865V67.2607Z" fill="white"/>
<path d="M17.4865 72.7832H11.9636V78.3061H17.4865V72.7832Z" fill="white"/>
<path d="M17.4865 83.8301H11.9636V89.353H17.4865V83.8301Z" fill="white"/>
<path d="M17.4865 100.399H11.9636V105.922H17.4865V100.399Z" fill="white"/>
<path d="M17.4865 105.921H11.9636V111.444H17.4865V105.921Z" fill="white"/>
<path d="M23.0093 45.1709H17.4865V50.6938H23.0093V45.1709Z" fill="white"/>
<path d="M23.0093 56.2158H17.4865V61.7387H23.0093V56.2158Z" fill="white"/>
<path d="M23.0093 67.2607H17.4865V72.7836H23.0093V67.2607Z" fill="white"/>
<path d="M23.0093 72.7832H17.4865V78.3061H23.0093V72.7832Z" fill="white"/>
<path d="M23.0093 78.3057H17.4865V83.8286H23.0093V78.3057Z" fill="white"/>
<path d="M23.0093 100.399H17.4865V105.922H23.0093V100.399Z" fill="white"/>
<path d="M28.5324 45.1709H23.0095V50.6938H28.5324V45.1709Z" fill="white"/>
<path d="M28.5324 50.6934H23.0095V56.2162H28.5324V50.6934Z" fill="white"/>
<path d="M28.5324 61.7363H23.0095V67.2592H28.5324V61.7363Z" fill="white"/>
<path d="M28.5324 78.3057H23.0095V83.8286H28.5324V78.3057Z" fill="white"/>
<path d="M28.5324 89.3525H23.0095V94.8754H28.5324V89.3525Z" fill="white"/>
<path d="M28.5324 105.921H23.0095V111.444H28.5324V105.921Z" fill="white"/>
<path d="M34.0552 50.6934H28.5323V56.2162H34.0552V50.6934Z" fill="white"/>
<path d="M34.0552 72.7832H28.5323V78.3061H34.0552V72.7832Z" fill="white"/>
<path d="M34.0552 83.8301H28.5323V89.353H34.0552V83.8301Z" fill="white"/>
<path d="M34.0552 94.876H28.5323V100.399H34.0552V94.876Z" fill="white"/>
<path d="M34.0552 105.921H28.5323V111.444H34.0552V105.921Z" fill="white"/>
<path d="M39.5778 45.1709H34.0549V50.6938H39.5778V45.1709Z" fill="white"/>
<path d="M39.5778 56.2158H34.0549V61.7387H39.5778V56.2158Z" fill="white"/>
<path d="M39.5778 67.2607H34.0549V72.7836H39.5778V67.2607Z" fill="white"/>
<path d="M39.5778 78.3057H34.0549V83.8286H39.5778V78.3057Z" fill="white"/>
<path d="M39.5778 89.3525H34.0549V94.8754H39.5778V89.3525Z" fill="white"/>
<path d="M39.5778 100.399H34.0549V105.922H39.5778V100.399Z" fill="white"/>
<path d="M39.5778 111.443H34.0549V116.966H39.5778V111.443Z" fill="white"/>
<path d="M45.101 45.1709H39.5781V50.6938H45.101V45.1709Z" fill="white"/>
<path d="M45.101 56.2158H39.5781V61.7387H45.101V56.2158Z" fill="white"/>
<path d="M45.101 61.7363H39.5781V67.2592H45.101V61.7363Z" fill="white"/>
<path d="M45.101 72.7832H39.5781V78.3061H45.101V72.7832Z" fill="white"/>
<path d="M45.101 78.3057H39.5781V83.8286H45.101V78.3057Z" fill="white"/>
<path d="M45.101 89.3525H39.5781V94.8754H45.101V89.3525Z" fill="white"/>
<path d="M45.101 94.876H39.5781V100.399H45.101V94.876Z" fill="white"/>
<path d="M45.101 100.399H39.5781V105.922H45.101V100.399Z" fill="white"/>
<path d="M50.6237 6.50879H45.1008V12.0317H50.6237V6.50879Z" fill="white"/>
<path d="M50.6237 12.0312H45.1008V17.5541H50.6237V12.0312Z" fill="white"/>
<path d="M50.6237 23.0771H45.1008V28.6H50.6237V23.0771Z" fill="white"/>
<path d="M50.6237 34.124H45.1008V39.6469H50.6237V34.124Z" fill="white"/>
<path d="M50.6237 39.6465H45.1008V45.1694H50.6237V39.6465Z" fill="white"/>
<path d="M50.6237 50.6934H45.1008V56.2162H50.6237V50.6934Z" fill="white"/>
<path d="M50.6237 61.7363H45.1008V67.2592H50.6237V61.7363Z" fill="white"/>
<path d="M50.6237 67.2607H45.1008V72.7836H50.6237V67.2607Z" fill="white"/>
<path d="M50.6237 72.7832H45.1008V78.3061H50.6237V72.7832Z" fill="white"/>
<path d="M50.6237 78.3057H45.1008V83.8286H50.6237V78.3057Z" fill="white"/>
<path d="M50.6237 83.8301H45.1008V89.353H50.6237V83.8301Z" fill="white"/>
<path d="M50.6237 100.399H45.1008V105.922H50.6237V100.399Z" fill="white"/>
<path d="M50.6237 111.443H45.1008V116.966H50.6237V111.443Z" fill="white"/>
<path d="M50.6237 122.49H45.1008V128.013H50.6237V122.49Z" fill="white"/>
<path d="M50.6237 133.534H45.1008V139.057H50.6237V133.534Z" fill="white"/>
<path d="M50.6237 139.06H45.1008V144.582H50.6237V139.06Z" fill="white"/>
<path d="M50.6237 144.582H45.1008V150.105H50.6237V144.582Z" fill="white"/>
<path d="M50.6237 150.104H45.1008V155.627H50.6237V150.104Z" fill="white"/>
<path d="M50.6237 155.628H45.1008V161.151H50.6237V155.628Z" fill="white"/>
<path d="M56.1472 0.986328H50.6243V6.50922H56.1472V0.986328Z" fill="white"/>
<path d="M56.1472 6.50879H50.6243V12.0317H56.1472V6.50879Z" fill="white"/>
<path d="M56.1472 12.0312H50.6243V17.5541H56.1472V12.0312Z" fill="white"/>
<path d="M56.1472 23.0771H50.6243V28.6H56.1472V23.0771Z" fill="white"/>
<path d="M56.1472 78.3057H50.6243V83.8286H56.1472V78.3057Z" fill="white"/>
<path d="M56.1472 89.3525H50.6243V94.8754H56.1472V89.3525Z" fill="white"/>
<path d="M56.1472 100.399H50.6243V105.922H56.1472V100.399Z" fill="white"/>
<path d="M56.1472 105.921H50.6243V111.444H56.1472V105.921Z" fill="white"/>
<path d="M56.1472 122.49H50.6243V128.013H56.1472V122.49Z" fill="white"/>
<path d="M56.1472 128.013H50.6243V133.536H56.1472V128.013Z" fill="white"/>
<path d="M56.1472 144.582H50.6243V150.105H56.1472V144.582Z" fill="white"/>
<path d="M56.1472 155.628H50.6243V161.151H56.1472V155.628Z" fill="white"/>
<path d="M61.6695 17.5537H56.1466V23.0766H61.6695V17.5537Z" fill="white"/>
<path d="M61.6695 28.6025H56.1466V34.1254H61.6695V28.6025Z" fill="white"/>
<path d="M61.6695 34.124H56.1466V39.6469H61.6695V34.124Z" fill="white"/>
<path d="M61.6695 39.6465H56.1466V45.1694H61.6695V39.6465Z" fill="white"/>
<path d="M61.6695 45.1709H56.1466V50.6938H61.6695V45.1709Z" fill="white"/>
<path d="M61.6695 50.6934H56.1466V56.2162H61.6695V50.6934Z" fill="white"/>
<path d="M61.6695 61.7363H56.1466V67.2592H61.6695V61.7363Z" fill="white"/>
<path d="M61.6695 72.7832H56.1466V78.3061H61.6695V72.7832Z" fill="white"/>
<path d="M61.6695 83.8301H56.1466V89.353H61.6695V83.8301Z" fill="white"/>
<path d="M61.6695 89.3525H56.1466V94.8754H61.6695V89.3525Z" fill="white"/>
<path d="M61.6695 100.399H56.1466V105.922H61.6695V100.399Z" fill="white"/>
<path d="M61.6695 111.443H56.1466V116.966H61.6695V111.443Z" fill="white"/>
<path d="M61.6695 128.013H56.1466V133.536H61.6695V128.013Z" fill="white"/>
<path d="M61.6695 133.534H56.1466V139.057H61.6695V133.534Z" fill="white"/>
<path d="M61.6695 144.582H56.1466V150.105H61.6695V144.582Z" fill="white"/>
<path d="M61.6695 150.104H56.1466V155.627H61.6695V150.104Z" fill="white"/>
<path d="M61.6695 155.628H56.1466V161.151H61.6695V155.628Z" fill="white"/>
<path d="M67.1927 0.986328H61.6698V6.50922H67.1927V0.986328Z" fill="white"/>
<path d="M67.1927 12.0312H61.6698V17.5541H67.1927V12.0312Z" fill="white"/>
<path d="M67.1927 23.0771H61.6698V28.6H67.1927V23.0771Z" fill="white"/>
<path d="M67.1927 39.6465H61.6698V45.1694H67.1927V39.6465Z" fill="white"/>
<path d="M67.1927 50.6934H61.6698V56.2162H67.1927V50.6934Z" fill="white"/>
<path d="M67.1927 67.2607H61.6698V72.7836H67.1927V67.2607Z" fill="white"/>
<path d="M67.1927 83.8301H61.6698V89.353H67.1927V83.8301Z" fill="white"/>
<path d="M67.1927 89.3525H61.6698V94.8754H67.1927V89.3525Z" fill="white"/>
<path d="M67.1927 94.876H61.6698V100.399H67.1927V94.876Z" fill="white"/>
<path d="M67.1927 100.399H61.6698V105.922H67.1927V100.399Z" fill="white"/>
<path d="M67.1927 105.921H61.6698V111.444H67.1927V105.921Z" fill="white"/>
<path d="M67.1927 116.966H61.6698V122.489H67.1927V116.966Z" fill="white"/>
<path d="M67.1927 122.49H61.6698V128.013H67.1927V122.49Z" fill="white"/>
<path d="M67.1927 128.013H61.6698V133.536H67.1927V128.013Z" fill="white"/>
<path d="M67.1927 133.534H61.6698V139.057H67.1927V133.534Z" fill="white"/>
<path d="M67.1927 139.06H61.6698V144.582H67.1927V139.06Z" fill="white"/>
<path d="M67.1927 150.104H61.6698V155.627H67.1927V150.104Z" fill="white"/>
<path d="M72.7155 12.0312H67.1926V17.5541H72.7155V12.0312Z" fill="white"/>
<path d="M72.7155 34.124H67.1926V39.6469H72.7155V34.124Z" fill="white"/>
<path d="M72.7155 45.1709H67.1926V50.6938H72.7155V45.1709Z" fill="white"/>
<path d="M72.7155 56.2158H67.1926V61.7387H72.7155V56.2158Z" fill="white"/>
<path d="M72.7155 61.7363H67.1926V67.2592H72.7155V61.7363Z" fill="white"/>
<path d="M72.7155 94.876H67.1926V100.399H72.7155V94.876Z" fill="white"/>
<path d="M72.7155 100.399H67.1926V105.922H72.7155V100.399Z" fill="white"/>
<path d="M72.7155 105.921H67.1926V111.444H72.7155V105.921Z" fill="white"/>
<path d="M72.7155 122.49H67.1926V128.013H72.7155V122.49Z" fill="white"/>
<path d="M72.7155 128.013H67.1926V133.536H72.7155V128.013Z" fill="white"/>
<path d="M72.7155 139.06H67.1926V144.582H72.7155V139.06Z" fill="white"/>
<path d="M78.2383 17.5537H72.7155V23.0766H78.2383V17.5537Z" fill="white"/>
<path d="M78.2383 39.6465H72.7155V45.1694H78.2383V39.6465Z" fill="white"/>
<path d="M78.2383 67.2607H72.7155V72.7836H78.2383V67.2607Z" fill="white"/>
<path d="M78.2383 72.7832H72.7155V78.3061H78.2383V72.7832Z" fill="white"/>
<path d="M78.2383 78.3057H72.7155V83.8286H78.2383V78.3057Z" fill="white"/>
<path d="M78.2383 111.443H72.7155V116.966H78.2383V111.443Z" fill="white"/>
<path d="M78.2383 116.966H72.7155V122.489H78.2383V116.966Z" fill="white"/>
<path d="M78.2383 122.49H72.7155V128.013H78.2383V122.49Z" fill="white"/>
<path d="M78.2383 128.013H72.7155V133.536H78.2383V128.013Z" fill="white"/>
<path d="M78.2383 150.104H72.7155V155.627H78.2383V150.104Z" fill="white"/>
<path d="M78.2383 155.628H72.7155V161.151H78.2383V155.628Z" fill="white"/>
<path d="M83.7612 0.986328H78.2383V6.50922H83.7612V0.986328Z" fill="white"/>
<path d="M83.7612 12.0312H78.2383V17.5541H83.7612V12.0312Z" fill="white"/>
<path d="M83.7612 34.124H78.2383V39.6469H83.7612V34.124Z" fill="white"/>
<path d="M83.7612 39.6465H78.2383V45.1694H83.7612V39.6465Z" fill="white"/>
<path d="M83.7612 45.1709H78.2383V50.6938H83.7612V45.1709Z" fill="white"/>
<path d="M83.7612 50.6934H78.2383V56.2162H83.7612V50.6934Z" fill="white"/>
<path d="M83.7612 67.2607H78.2383V72.7836H83.7612V67.2607Z" fill="white"/>
<path d="M83.7612 78.3057H78.2383V83.8286H83.7612V78.3057Z" fill="white"/>
<path d="M83.7612 83.8301H78.2383V89.353H83.7612V83.8301Z" fill="white"/>
<path d="M83.7612 89.3525H78.2383V94.8754H83.7612V89.3525Z" fill="white"/>
<path d="M83.7612 94.876H78.2383V100.399H83.7612V94.876Z" fill="white"/>
<path d="M83.7612 116.966H78.2383V122.489H83.7612V116.966Z" fill="white"/>
<path d="M83.7612 122.49H78.2383V128.013H83.7612V122.49Z" fill="white"/>
<path d="M83.7612 128.013H78.2383V133.536H83.7612V128.013Z" fill="white"/>
<path d="M83.7612 144.582H78.2383V150.105H83.7612V144.582Z" fill="white"/>
<path d="M83.7612 150.104H78.2383V155.627H83.7612V150.104Z" fill="white"/>
<path d="M83.7612 155.628H78.2383V161.151H83.7612V155.628Z" fill="white"/>
<path d="M89.2842 0.986328H83.7614V6.50922H89.2842V0.986328Z" fill="white"/>
<path d="M89.2842 6.50879H83.7614V12.0317H89.2842V6.50879Z" fill="white"/>
<path d="M89.2842 28.6025H83.7614V34.1254H89.2842V28.6025Z" fill="white"/>
<path d="M89.2842 61.7363H83.7614V67.2592H89.2842V61.7363Z" fill="white"/>
<path d="M89.2842 67.2607H83.7614V72.7836H89.2842V67.2607Z" fill="white"/>
<path d="M89.2842 78.3057H83.7614V83.8286H89.2842V78.3057Z" fill="white"/>
<path d="M89.2842 89.3525H83.7614V94.8754H89.2842V89.3525Z" fill="white"/>
<path d="M89.2842 105.921H83.7614V111.444H89.2842V105.921Z" fill="white"/>
<path d="M89.2842 116.966H83.7614V122.489H89.2842V116.966Z" fill="white"/>
<path d="M89.2842 122.49H83.7614V128.013H89.2842V122.49Z" fill="white"/>
<path d="M89.2842 128.013H83.7614V133.536H89.2842V128.013Z" fill="white"/>
<path d="M89.2842 150.104H83.7614V155.627H89.2842V150.104Z" fill="white"/>
<path d="M89.2842 155.628H83.7614V161.151H89.2842V155.628Z" fill="white"/>
<path d="M94.8072 0.986328H89.2843V6.50922H94.8072V0.986328Z" fill="white"/>
<path d="M94.8072 6.50879H89.2843V12.0317H94.8072V6.50879Z" fill="white"/>
<path d="M94.8072 12.0312H89.2843V17.5541H94.8072V12.0312Z" fill="white"/>
<path d="M94.8072 23.0771H89.2843V28.6H94.8072V23.0771Z" fill="white"/>
<path d="M94.8072 34.124H89.2843V39.6469H94.8072V34.124Z" fill="white"/>
<path d="M94.8072 50.6934H89.2843V56.2162H94.8072V50.6934Z" fill="white"/>
<path d="M94.8072 61.7363H89.2843V67.2592H94.8072V61.7363Z" fill="white"/>
<path d="M94.8072 67.2607H89.2843V72.7836H94.8072V67.2607Z" fill="white"/>
<path d="M94.8072 72.7832H89.2843V78.3061H94.8072V72.7832Z" fill="white"/>
<path d="M94.8072 78.3057H89.2843V83.8286H94.8072V78.3057Z" fill="white"/>
<path d="M94.8072 111.443H89.2843V116.966H94.8072V111.443Z" fill="white"/>
<path d="M94.8072 122.49H89.2843V128.013H94.8072V122.49Z" fill="white"/>
<path d="M94.8072 133.534H89.2843V139.057H94.8072V133.534Z" fill="white"/>
<path d="M94.8072 139.06H89.2843V144.582H94.8072V139.06Z" fill="white"/>
<path d="M94.8072 150.104H89.2843V155.627H94.8072V150.104Z" fill="white"/>
<path d="M100.33 6.50879H94.8071V12.0317H100.33V6.50879Z" fill="white"/>
<path d="M100.33 12.0312H94.8071V17.5541H100.33V12.0312Z" fill="white"/>
<path d="M100.33 28.6025H94.8071V34.1254H100.33V28.6025Z" fill="white"/>
<path d="M100.33 45.1709H94.8071V50.6938H100.33V45.1709Z" fill="white"/>
<path d="M100.33 50.6934H94.8071V56.2162H100.33V50.6934Z" fill="white"/>
<path d="M100.33 56.2158H94.8071V61.7387H100.33V56.2158Z" fill="white"/>
<path d="M100.33 61.7363H94.8071V67.2592H100.33V61.7363Z" fill="white"/>
<path d="M100.33 67.2607H94.8071V72.7836H100.33V67.2607Z" fill="white"/>
<path d="M100.33 78.3057H94.8071V83.8286H100.33V78.3057Z" fill="white"/>
<path d="M100.33 83.8301H94.8071V89.353H100.33V83.8301Z" fill="white"/>
<path d="M100.33 105.921H94.8071V111.444H100.33V105.921Z" fill="white"/>
<path d="M100.33 111.443H94.8071V116.966H100.33V111.443Z" fill="white"/>
<path d="M100.33 122.49H94.8071V128.013H100.33V122.49Z" fill="white"/>
<path d="M100.33 150.104H94.8071V155.627H100.33V150.104Z" fill="white"/>
<path d="M100.33 155.628H94.8071V161.151H100.33V155.628Z" fill="white"/>
<path d="M105.853 0.986328H100.33V6.50922H105.853V0.986328Z" fill="white"/>
<path d="M105.853 23.0771H100.33V28.6H105.853V23.0771Z" fill="white"/>
<path d="M105.853 34.124H100.33V39.6469H105.853V34.124Z" fill="white"/>
<path d="M105.853 39.6465H100.33V45.1694H105.853V39.6465Z" fill="white"/>
<path d="M105.853 72.7832H100.33V78.3061H105.853V72.7832Z" fill="white"/>
<path d="M105.853 94.876H100.33V100.399H105.853V94.876Z" fill="white"/>
<path d="M105.853 111.443H100.33V116.966H105.853V111.443Z" fill="white"/>
<path d="M105.853 116.966H100.33V122.489H105.853V116.966Z" fill="white"/>
<path d="M105.853 139.06H100.33V144.582H105.853V139.06Z" fill="white"/>
<path d="M105.853 150.104H100.33V155.627H105.853V150.104Z" fill="white"/>
<path d="M105.853 155.628H100.33V161.151H105.853V155.628Z" fill="white"/>
<path d="M111.376 6.50879H105.853V12.0317H111.376V6.50879Z" fill="white"/>
<path d="M111.376 39.6465H105.853V45.1694H111.376V39.6465Z" fill="white"/>
<path d="M111.376 78.3057H105.853V83.8286H111.376V78.3057Z" fill="white"/>
<path d="M111.376 83.8301H105.853V89.353H111.376V83.8301Z" fill="white"/>
<path d="M111.376 94.876H105.853V100.399H111.376V94.876Z" fill="white"/>
<path d="M111.376 105.921H105.853V111.444H111.376V105.921Z" fill="white"/>
<path d="M111.376 111.443H105.853V116.966H111.376V111.443Z" fill="white"/>
<path d="M111.376 122.49H105.853V128.013H111.376V122.49Z" fill="white"/>
<path d="M111.376 133.534H105.853V139.057H111.376V133.534Z" fill="white"/>
<path d="M111.376 150.104H105.853V155.627H111.376V150.104Z" fill="white"/>
<path d="M111.376 155.628H105.853V161.151H111.376V155.628Z" fill="white"/>
<path d="M116.899 0.986328H111.376V6.50922H116.899V0.986328Z" fill="white"/>
<path d="M116.899 12.0312H111.376V17.5541H116.899V12.0312Z" fill="white"/>
<path d="M116.899 34.124H111.376V39.6469H116.899V34.124Z" fill="white"/>
<path d="M116.899 45.1709H111.376V50.6938H116.899V45.1709Z" fill="white"/>
<path d="M116.899 56.2158H111.376V61.7387H116.899V56.2158Z" fill="white"/>
<path d="M116.899 67.2607H111.376V72.7836H116.899V67.2607Z" fill="white"/>
<path d="M116.899 89.3525H111.376V94.8754H116.899V89.3525Z" fill="white"/>
<path d="M116.899 94.876H111.376V100.399H116.899V94.876Z" fill="white"/>
<path d="M116.899 111.443H111.376V116.966H116.899V111.443Z" fill="white"/>
<path d="M116.899 116.966H111.376V122.489H116.899V116.966Z" fill="white"/>
<path d="M116.899 122.49H111.376V128.013H116.899V122.49Z" fill="white"/>
<path d="M116.899 128.013H111.376V133.536H116.899V128.013Z" fill="white"/>
<path d="M116.899 133.534H111.376V139.057H116.899V133.534Z" fill="white"/>
<path d="M116.899 144.582H111.376V150.105H116.899V144.582Z" fill="white"/>
<path d="M122.422 45.1709H116.899V50.6938H122.422V45.1709Z" fill="white"/>
<path d="M122.422 50.6934H116.899V56.2162H122.422V50.6934Z" fill="white"/>
<path d="M122.422 67.2607H116.899V72.7836H122.422V67.2607Z" fill="white"/>
<path d="M122.422 78.3057H116.899V83.8286H122.422V78.3057Z" fill="white"/>
<path d="M122.422 94.876H116.899V100.399H122.422V94.876Z" fill="white"/>
<path d="M122.422 111.443H116.899V116.966H122.422V111.443Z" fill="white"/>
<path d="M122.422 133.534H116.899V139.057H122.422V133.534Z" fill="white"/>
<path d="M122.422 150.104H116.899V155.627H122.422V150.104Z" fill="white"/>
<path d="M122.422 155.628H116.899V161.151H122.422V155.628Z" fill="white"/>
<path d="M127.945 45.1709H122.422V50.6938H127.945V45.1709Z" fill="white"/>
<path d="M127.945 56.2158H122.422V61.7387H127.945V56.2158Z" fill="white"/>
<path d="M127.945 72.7832H122.422V78.3061H127.945V72.7832Z" fill="white"/>
<path d="M127.945 100.399H122.422V105.922H127.945V100.399Z" fill="white"/>
<path d="M127.945 105.921H122.422V111.444H127.945V105.921Z" fill="white"/>
<path d="M127.945 111.443H122.422V116.966H127.945V111.443Z" fill="white"/>
<path d="M127.945 122.49H122.422V128.013H127.945V122.49Z" fill="white"/>
<path d="M127.945 133.534H122.422V139.057H127.945V133.534Z" fill="white"/>
<path d="M127.945 144.582H122.422V150.105H127.945V144.582Z" fill="white"/>
<path d="M127.945 150.104H122.422V155.627H127.945V150.104Z" fill="white"/>
<path d="M127.945 155.628H122.422V161.151H127.945V155.628Z" fill="white"/>
<path d="M133.468 56.2158H127.945V61.7387H133.468V56.2158Z" fill="white"/>
<path d="M133.468 72.7832H127.945V78.3061H133.468V72.7832Z" fill="white"/>
<path d="M133.468 78.3057H127.945V83.8286H133.468V78.3057Z" fill="white"/>
<path d="M133.468 89.3525H127.945V94.8754H133.468V89.3525Z" fill="white"/>
<path d="M133.468 94.876H127.945V100.399H133.468V94.876Z" fill="white"/>
<path d="M133.468 100.399H127.945V105.922H133.468V100.399Z" fill="white"/>
<path d="M133.468 111.443H127.945V116.966H133.468V111.443Z" fill="white"/>
<path d="M133.468 133.534H127.945V139.057H133.468V133.534Z" fill="white"/>
<path d="M133.468 155.628H127.945V161.151H133.468V155.628Z" fill="white"/>
<path d="M138.99 45.1709H133.467V50.6938H138.99V45.1709Z" fill="white"/>
<path d="M138.99 50.6934H133.467V56.2162H138.99V50.6934Z" fill="white"/>
<path d="M138.99 56.2158H133.467V61.7387H138.99V56.2158Z" fill="white"/>
<path d="M138.99 61.7363H133.467V67.2592H138.99V61.7363Z" fill="white"/>
<path d="M138.99 72.7832H133.467V78.3061H138.99V72.7832Z" fill="white"/>
<path d="M138.99 83.8301H133.467V89.353H138.99V83.8301Z" fill="white"/>
<path d="M138.99 89.3525H133.467V94.8754H138.99V89.3525Z" fill="white"/>
<path d="M138.99 100.399H133.467V105.922H138.99V100.399Z" fill="white"/>
<path d="M138.99 111.443H133.467V116.966H138.99V111.443Z" fill="white"/>
<path d="M138.99 116.966H133.467V122.489H138.99V116.966Z" fill="white"/>
<path d="M138.99 122.49H133.467V128.013H138.99V122.49Z" fill="white"/>
<path d="M138.99 128.013H133.467V133.536H138.99V128.013Z" fill="white"/>
<path d="M138.99 133.534H133.467V139.057H138.99V133.534Z" fill="white"/>
<path d="M138.99 139.06H133.467V144.582H138.99V139.06Z" fill="white"/>
<path d="M138.99 150.104H133.467V155.627H138.99V150.104Z" fill="white"/>
<path d="M144.513 50.6934H138.99V56.2162H144.513V50.6934Z" fill="white"/>
<path d="M144.513 78.3057H138.99V83.8286H144.513V78.3057Z" fill="white"/>
<path d="M144.513 83.8301H138.99V89.353H144.513V83.8301Z" fill="white"/>
<path d="M144.513 89.3525H138.99V94.8754H144.513V89.3525Z" fill="white"/>
<path d="M144.513 100.399H138.99V105.922H144.513V100.399Z" fill="white"/>
<path d="M144.513 111.443H138.99V116.966H144.513V111.443Z" fill="white"/>
<path d="M144.513 116.966H138.99V122.489H144.513V116.966Z" fill="white"/>
<path d="M144.513 133.534H138.99V139.057H144.513V133.534Z" fill="white"/>
<path d="M150.036 45.1709H144.513V50.6938H150.036V45.1709Z" fill="white"/>
<path d="M150.036 50.6934H144.513V56.2162H150.036V50.6934Z" fill="white"/>
<path d="M150.036 67.2607H144.513V72.7836H150.036V67.2607Z" fill="white"/>
<path d="M150.036 72.7832H144.513V78.3061H150.036V72.7832Z" fill="white"/>
<path d="M150.036 83.8301H144.513V89.353H150.036V83.8301Z" fill="white"/>
<path d="M150.036 89.3525H144.513V94.8754H150.036V89.3525Z" fill="white"/>
<path d="M150.036 100.399H144.513V105.922H150.036V100.399Z" fill="white"/>
<path d="M150.036 105.921H144.513V111.444H150.036V105.921Z" fill="white"/>
<path d="M150.036 128.013H144.513V133.536H150.036V128.013Z" fill="white"/>
<path d="M150.036 133.534H144.513V139.057H150.036V133.534Z" fill="white"/>
<path d="M150.036 144.582H144.513V150.105H150.036V144.582Z" fill="white"/>
<path d="M150.036 155.628H144.513V161.151H150.036V155.628Z" fill="white"/>
<path d="M155.559 45.1709H150.036V50.6938H155.559V45.1709Z" fill="white"/>
<path d="M155.559 50.6934H150.036V56.2162H155.559V50.6934Z" fill="white"/>
<path d="M155.559 56.2158H150.036V61.7387H155.559V56.2158Z" fill="white"/>
<path d="M155.559 61.7363H150.036V67.2592H155.559V61.7363Z" fill="white"/>
<path d="M155.559 67.2607H150.036V72.7836H155.559V67.2607Z" fill="white"/>
<path d="M155.559 72.7832H150.036V78.3061H155.559V72.7832Z" fill="white"/>
<path d="M155.559 78.3057H150.036V83.8286H155.559V78.3057Z" fill="white"/>
<path d="M155.559 89.3525H150.036V94.8754H155.559V89.3525Z" fill="white"/>
<path d="M155.559 94.876H150.036V100.399H155.559V94.876Z" fill="white"/>
<path d="M155.559 100.399H150.036V105.922H155.559V100.399Z" fill="white"/>
<path d="M155.559 111.443H150.036V116.966H155.559V111.443Z" fill="white"/>
<path d="M155.559 128.013H150.036V133.536H155.559V128.013Z" fill="white"/>
<path d="M155.559 150.104H150.036V155.627H155.559V150.104Z" fill="white"/>
<path d="M161.082 50.6934H155.559V56.2162H161.082V50.6934Z" fill="white"/>
<path d="M161.082 56.2158H155.559V61.7387H161.082V56.2158Z" fill="white"/>
<path d="M161.082 61.7363H155.559V67.2592H161.082V61.7363Z" fill="white"/>
<path d="M161.082 72.7832H155.559V78.3061H161.082V72.7832Z" fill="white"/>
<path d="M161.082 78.3057H155.559V83.8286H161.082V78.3057Z" fill="white"/>
<path d="M161.082 83.8301H155.559V89.353H161.082V83.8301Z" fill="white"/>
<path d="M161.082 89.3525H155.559V94.8754H161.082V89.3525Z" fill="white"/>
<path d="M161.082 94.876H155.559V100.399H161.082V94.876Z" fill="white"/>
<path d="M161.082 111.443H155.559V116.966H161.082V111.443Z" fill="white"/>
<path d="M161.082 116.966H155.559V122.489H161.082V116.966Z" fill="white"/>
<path d="M161.082 122.49H155.559V128.013H161.082V122.49Z" fill="white"/>
<path d="M161.082 133.534H155.559V139.057H161.082V133.534Z" fill="white"/>
<path d="M161.082 144.582H155.559V150.105H161.082V144.582Z" fill="white"/>
<path d="M161.082 150.104H155.559V155.627H161.082V150.104Z" fill="white"/>
<path d="M161.082 155.628H155.559V161.151H161.082V155.628Z" fill="white"/>
</mask>
<g mask="url(#mask0_100_1038)">
<path d="M161.082 0.986328H0.917847V161.15H161.082V0.986328Z" fill="black"/>
</g>
<mask id="mask1_100_1038" style="mask-type:luminance" maskUnits="userSpaceOnUse" x="0" y="0" width="40" height="40">
<path d="M6.44074 0.986328H0.917847V6.50922H6.44074V0.986328Z" fill="white"/>
<path d="M6.44074 6.50879H0.917847V12.0317H6.44074V6.50879Z" fill="white"/>
<path d="M6.44074 12.0312H0.917847V17.5541H6.44074V12.0312Z" fill="white"/>
<path d="M6.44074 17.5537H0.917847V23.0766H6.44074V17.5537Z" fill="white"/>
<path d="M6.44074 23.0771H0.917847V28.6H6.44074V23.0771Z" fill="white"/>
<path d="M6.44074 28.6025H0.917847V34.1254H6.44074V28.6025Z" fill="white"/>
<path d="M6.44074 34.124H0.917847V39.6469H6.44074V34.124Z" fill="white"/>
<path d="M11.9636 0.986328H6.44067V6.50922H11.9636V0.986328Z" fill="white"/>
<path d="M11.9636 34.124H6.44067V39.6469H11.9636V34.124Z" fill="white"/>
<path d="M17.4865 0.986328H11.9636V6.50922H17.4865V0.986328Z" fill="white"/>
<path d="M17.4865 34.124H11.9636V39.6469H17.4865V34.124Z" fill="white"/>
<path d="M23.0093 0.986328H17.4865V6.50922H23.0093V0.986328Z" fill="white"/>
<path d="M23.0093 34.124H17.4865V39.6469H23.0093V34.124Z" fill="white"/>
<path d="M28.5324 0.986328H23.0095V6.50922H28.5324V0.986328Z" fill="white"/>
<path d="M28.5324 34.124H23.0095V39.6469H28.5324V34.124Z" fill="white"/>
<path d="M34.0552 0.986328H28.5323V6.50922H34.0552V0.986328Z" fill="white"/>
<path d="M34.0552 34.124H28.5323V39.6469H34.0552V34.124Z" fill="white"/>
<path d="M39.5778 0.986328H34.0549V6.50922H39.5778V0.986328Z" fill="white"/>
<path d="M39.5778 6.50879H34.0549V12.0317H39.5778V6.50879Z" fill="white"/>
<path d="M39.5778 12.0312H34.0549V17.5541H39.5778V12.0312Z" fill="white"/>
<path d="M39.5778 17.5537H34.0549V23.0766H39.5778V17.5537Z" fill="white"/>
<path d="M39.5778 23.0771H34.0549V28.6H39.5778V23.0771Z" fill="white"/>
<path d="M39.5778 28.6025H34.0549V34.1254H39.5778V28.6025Z" fill="white"/>
<path d="M39.5778 34.124H34.0549V39.6469H39.5778V34.124Z" fill="white"/>
</mask>
<g mask="url(#mask1_100_1038)">
<path d="M39.5781 0.986328H0.917847V39.6466H39.5781V0.986328Z" fill="black"/>
</g>
<mask id="mask2_100_1038" style="mask-type:luminance" maskUnits="userSpaceOnUse" x="11" y="12" width="18" height="17">
<path d="M17.4869 12.0293H11.964V17.5522H17.4869V12.0293Z" fill="white"/>
<path d="M17.4866 17.5518H11.9637V23.0746H17.4866V17.5518Z" fill="white"/>
<path d="M17.4866 23.0742H11.9637V28.5971H17.4866V23.0742Z" fill="white"/>
<path d="M23.0092 12.0293H17.4863V17.5522H23.0092V12.0293Z" fill="white"/>
<path d="M23.0092 17.5518H17.4863V23.0746H23.0092V17.5518Z" fill="white"/>
<path d="M23.0092 23.0742H17.4863V28.5971H23.0092V23.0742Z" fill="white"/>
<path d="M28.5324 12.0293H23.0095V17.5522H28.5324V12.0293Z" fill="white"/>
<path d="M28.5324 17.5518H23.0095V23.0746H28.5324V17.5518Z" fill="white"/>
<path d="M28.5324 23.0742H23.0095V28.5971H28.5324V23.0742Z" fill="white"/>
</mask>
<g mask="url(#mask2_100_1038)">
<path d="M28.5324 12.0293H11.9637V28.598H28.5324V12.0293Z" fill="black"/>
</g>
<mask id="mask3_100_1038" style="mask-type:luminance" maskUnits="userSpaceOnUse" x="122" y="0" width="40" height="40">
<path d="M127.945 0.986328H122.422V6.50922H127.945V0.986328Z" fill="white"/>
<path d="M127.945 6.50879H122.422V12.0317H127.945V6.50879Z" fill="white"/>
<path d="M127.945 12.0312H122.422V17.5541H127.945V12.0312Z" fill="white"/>
<path d="M127.945 17.5537H122.422V23.0766H127.945V17.5537Z" fill="white"/>
<path d="M127.945 23.0771H122.422V28.6H127.945V23.0771Z" fill="white"/>
<path d="M127.945 28.6025H122.422V34.1254H127.945V28.6025Z" fill="white"/>
<path d="M127.945 34.124H122.422V39.6469H127.945V34.124Z" fill="white"/>
<path d="M133.467 0.986328H127.944V6.50922H133.467V0.986328Z" fill="white"/>
<path d="M133.467 34.124H127.944V39.6469H133.467V34.124Z" fill="white"/>
<path d="M138.99 0.986328H133.467V6.50922H138.99V0.986328Z" fill="white"/>
<path d="M138.99 34.124H133.467V39.6469H138.99V34.124Z" fill="white"/>
<path d="M144.513 0.986328H138.99V6.50922H144.513V0.986328Z" fill="white"/>
<path d="M144.513 34.124H138.99V39.6469H144.513V34.124Z" fill="white"/>
<path d="M150.036 0.986328H144.513V6.50922H150.036V0.986328Z" fill="white"/>
<path d="M150.036 34.124H144.513V39.6469H150.036V34.124Z" fill="white"/>
<path d="M155.559 0.986328H150.036V6.50922H155.559V0.986328Z" fill="white"/>
<path d="M155.559 34.124H150.036V39.6469H155.559V34.124Z" fill="white"/>
<path d="M161.082 0.986328H155.559V6.50922H161.082V0.986328Z" fill="white"/>
<path d="M161.082 6.50879H155.559V12.0317H161.082V6.50879Z" fill="white"/>
<path d="M161.082 12.0312H155.559V17.5541H161.082V12.0312Z" fill="white"/>
<path d="M161.082 17.5537H155.559V23.0766H161.082V17.5537Z" fill="white"/>
<path d="M161.082 23.0771H155.559V28.6H161.082V23.0771Z" fill="white"/>
<path d="M161.082 28.6025H155.559V34.1254H161.082V28.6025Z" fill="white"/>
<path d="M161.082 34.124H155.559V39.6469H161.082V34.124Z" fill="white"/>
</mask>
<g mask="url(#mask3_100_1038)">
<path d="M161.082 0.986328H122.421V39.6466H161.082V0.986328Z" fill="black"/>
</g>
<mask id="mask4_100_1038" style="mask-type:luminance" maskUnits="userSpaceOnUse" x="133" y="12" width="18" height="17">
<path d="M138.99 12.0293H133.467V17.5522H138.99V12.0293Z" fill="white"/>
<path d="M138.99 17.5518H133.467V23.0746H138.99V17.5518Z" fill="white"/>
<path d="M138.99 23.0742H133.467V28.5971H138.99V23.0742Z" fill="white"/>
<path d="M144.513 12.0293H138.99V17.5522H144.513V12.0293Z" fill="white"/>
<path d="M144.513 17.5518H138.99V23.0746H144.513V17.5518Z" fill="white"/>
<path d="M144.513 23.0742H138.99V28.5971H144.513V23.0742Z" fill="white"/>
<path d="M150.036 12.0293H144.513V17.5522H150.036V12.0293Z" fill="white"/>
<path d="M150.036 17.5518H144.513V23.0746H150.036V17.5518Z" fill="white"/>
<path d="M150.036 23.0742H144.513V28.5971H150.036V23.0742Z" fill="white"/>
</mask>
<g mask="url(#mask4_100_1038)">
<path d="M150.036 12.0293H133.467V28.598H150.036V12.0293Z" fill="black"/>
</g>
<mask id="mask5_100_1038" style="mask-type:luminance" maskUnits="userSpaceOnUse" x="0" y="122" width="40" height="40">
<path d="M6.44086 122.489H0.917969V128.012H6.44086V122.489Z" fill="white"/>
<path d="M6.44086 128.012H0.917969V133.535H6.44086V128.012Z" fill="white"/>
<path d="M6.44086 133.534H0.917969V139.057H6.44086V133.534Z" fill="white"/>
<path d="M6.44086 139.057H0.917969V144.58H6.44086V139.057Z" fill="white"/>
<path d="M6.44086 144.58H0.917969V150.103H6.44086V144.58Z" fill="white"/>
<path d="M6.44086 150.105H0.917969V155.628H6.44086V150.105Z" fill="white"/>
<path d="M6.44086 155.627H0.917969V161.15H6.44086V155.627Z" fill="white"/>
<path d="M11.9634 122.489H6.44055V128.012H11.9634V122.489Z" fill="white"/>
<path d="M11.9634 155.627H6.44055V161.15H11.9634V155.627Z" fill="white"/>
<path d="M17.4868 122.489H11.9639V128.012H17.4868V122.489Z" fill="white"/>
<path d="M17.4868 155.627H11.9639V161.15H17.4868V155.627Z" fill="white"/>
<path d="M23.0093 122.489H17.4865V128.012H23.0093V122.489Z" fill="white"/>
<path d="M23.0093 155.627H17.4865V161.15H23.0093V155.627Z" fill="white"/>
<path d="M28.5325 122.489H23.0096V128.012H28.5325V122.489Z" fill="white"/>
<path d="M28.5325 155.627H23.0096V161.15H28.5325V155.627Z" fill="white"/>
<path d="M34.0554 122.489H28.5325V128.012H34.0554V122.489Z" fill="white"/>
<path d="M34.0554 155.627H28.5325V161.15H34.0554V155.627Z" fill="white"/>
<path d="M39.5779 122.489H34.0551V128.012H39.5779V122.489Z" fill="white"/>
<path d="M39.5779 128.012H34.0551V133.535H39.5779V128.012Z" fill="white"/>
<path d="M39.5779 133.534H34.0551V139.057H39.5779V133.534Z" fill="white"/>
<path d="M39.5779 139.057H34.0551V144.58H39.5779V139.057Z" fill="white"/>
<path d="M39.5779 144.58H34.0551V150.103H39.5779V144.58Z" fill="white"/>
<path d="M39.5779 150.105H34.0551V155.628H39.5779V150.105Z" fill="white"/>
<path d="M39.5779 155.627H34.0551V161.15H39.5779V155.627Z" fill="white"/>
</mask>
<g mask="url(#mask5_100_1038)">
<path d="M39.5784 122.489H0.918213V161.149H39.5784V122.489Z" fill="black"/>
</g>
<mask id="mask6_100_1038" style="mask-type:luminance" maskUnits="userSpaceOnUse" x="11" y="133" width="18" height="18">
<path d="M17.4861 133.536H11.9633V139.059H17.4861V133.536Z" fill="white"/>
<path d="M17.4861 139.059H11.9633V144.581H17.4861V139.059Z" fill="white"/>
<path d="M17.4861 144.581H11.9633V150.104H17.4861V144.581Z" fill="white"/>
<path d="M23.009 133.536H17.4861V139.059H23.009V133.536Z" fill="white"/>
<path d="M23.009 139.059H17.4861V144.581H23.009V139.059Z" fill="white"/>
<path d="M23.009 144.581H17.4861V150.104H23.009V144.581Z" fill="white"/>
<path d="M28.5319 133.536H23.009V139.059H28.5319V133.536Z" fill="white"/>
<path d="M28.5319 139.059H23.009V144.581H28.5319V139.059Z" fill="white"/>
<path d="M28.5319 144.581H23.009V150.104H28.5319V144.581Z" fill="white"/>
</mask>
<g mask="url(#mask6_100_1038)">
<path d="M28.5319 133.536H11.9633V150.105H28.5319V133.536Z" fill="black"/>
</g>
</svg>
